<svg xmlns="http://www.w3.org/2000/svg" viewBox="0 0 154.91 44.13"><defs><style>.cls-1{fill:#fc0;}.cls-2{fill:#fbba00;}.cls-3{fill:#fff;}.cls-4{fill:#e3e3e3;}</style></defs><g id="Layer_2" data-name="Layer 2"><g id="Layer_1-2" data-name="Layer 1"><polygon class="cls-1" points="25.2 11.08 25.2 11.08 30.25 7.25 31.53 0 6.33 0 12.65 11.08 25.2 11.08"/><polygon class="cls-1" points="31.48 22.07 31.48 22.07 37.15 25.33 44.13 22.07 31.53 0 25.2 11.08 31.48 22.07"/><polygon class="cls-2" points="31.48 22.07 25.2 33.05 25.2 33.05 25.2 39.27 31.53 44.13 44.13 22.07 31.48 22.07"/><polygon class="cls-2" points="25.2 33.05 12.65 33.05 6.33 44.13 31.53 44.13 25.2 33.05"/><polygon class="cls-3" points="6.28 22.07 0 11.08 0 11.08 6.33 0 18.93 22.07 11.92 25.33 6.28 22.07 6.28 22.07"/><polygon class="cls-4" points="0 33.05 6.28 22.07 18.93 22.07 6.33 44.13 0 33.05 0 33.05"/><path class="cls-3" d="M72.16,11A17.88,17.88,0,0,1,74,11.1c3.51.32,5,1.67,5.86,3.08A12,12,0,0,1,81,20v3.58c0,.53,0,1,0,1.56-.19,4-1.29,5.77-3,6.84a9.53,9.53,0,0,1-5.17,1.19H51.55V11ZM58.44,27.82H69.72a8.73,8.73,0,0,0,1.6-.09c2.69-.44,2.82-2.48,2.85-4.74V20.23a3.92,3.92,0,0,0-.94-2.76c-.91-.94-2.29-1-3.7-1.07H58.44Z"/><path class="cls-3" d="M90.56,25.91a3.39,3.39,0,0,0,.15,1.28c.25.72.91,1,2.35,1.13s2.79.13,4.2.16,3,0,4.54-.06a5,5,0,0,0,1.88-.19,1.93,1.93,0,0,0,1.29-1.7,1.66,1.66,0,0,0-.32-1c-.53-.75-1.22-.72-2.78-.94-3.26-.06-6.52-.09-9.75-.28-1-.06-2.07-.16-3.1-.22-.31-.06-.66-.09-1-.16a5.15,5.15,0,0,1-3-1.47,6.26,6.26,0,0,1-1.32-4.36,13.16,13.16,0,0,1,.57-4,4.5,4.5,0,0,1,.91-1.41c1.28-1.38,3-1.6,4.82-1.82,2.41-.1,4.83-.19,7.24-.19,2.66,0,5.33.15,8,.28l1.22.19a6.09,6.09,0,0,1,3.2,1.44c1.53,1.41,1.53,3.39,1.47,5.33l-6.71,0c-.4-1.69-.72-1.91-2.5-2.1s-3.29-.16-4.92-.16c-1.29,0-2.54.07-3.82.1a2.56,2.56,0,0,0-2.17.75,1.84,1.84,0,0,0-.37,1,1.56,1.56,0,0,0,.37,1,2.66,2.66,0,0,0,2.2.84l13.28.47a5.82,5.82,0,0,1,3.29,1c1.13.81,2.13,2.25,2.13,5.48,0,2.51-.44,3.71-1.13,4.68a4.46,4.46,0,0,1-.9.94,8.68,8.68,0,0,1-3.76,1.19c-2.73.16-5.42.28-8.15.28-3,0-5.89-.19-8.87-.34-1.47-.22-3.13-.5-4.23-1.7s-1.22-3.82-1.22-5.48Z"/><path class="cls-3" d="M121.45,11V33.15h-7V11Z"/><path class="cls-3" d="M135.14,11c2.41,3,4.83,5.86,7.18,8.84,2.13,2.7,4.23,5.46,6.33,8.22l-.13-10.16V11h6.39V33.15H144c-2.6-3.17-5.2-6.33-7.74-9.59-1.88-2.42-3.73-4.9-5.55-7.34V33.15H124.3V11Z"/></g></g></svg>